<svg width="792" height="509" viewBox="0 0 792 509" fill="none" xmlns="http://www.w3.org/2000/svg">
<g id="cuponDescuento" clip-path="url(#clip0_1_3)">
<path id="rect3" d="M792 0H0V509H792V0Z" fill="url(#paint0_linear_1_3)"/>
<g id="g15">
<g id="g11">
<g id="g5">
<path id="path4" d="M607.152 106.751C607.152 107.514 606.644 107.959 605.882 107.959C605.12 107.959 604.644 107.514 604.644 106.783V103.16H603.628V106.783C603.628 108.054 604.549 108.913 605.914 108.913C607.279 108.913 608.2 108.054 608.2 106.783V103.16H607.184V106.783L607.152 106.751ZM610.264 104.654C610.264 104.241 610.645 103.987 611.121 103.987C611.82 103.987 612.359 104.495 612.359 104.495L612.804 103.669C612.804 103.669 612.232 103.065 611.121 103.065C610.01 103.065 609.216 103.764 609.216 104.717C609.216 106.465 611.883 106.275 611.883 107.292C611.883 107.768 611.502 107.991 611.058 107.991C610.264 107.991 609.661 107.387 609.661 107.387L609.089 108.15C609.089 108.15 609.788 108.913 611.026 108.913C612.201 108.913 612.899 108.15 612.899 107.26C612.899 105.448 610.232 105.703 610.232 104.686L610.264 104.654ZM616.296 103.128H615.217L613.217 108.785H614.264L614.741 107.323H616.709L617.185 108.785H618.233L616.233 103.128H616.296ZM615.026 106.497L615.534 104.972C615.661 104.654 615.788 104.082 615.788 104.082C615.788 104.082 615.915 104.654 616.011 104.972L616.519 106.497H615.026Z" fill="white"/>
<path id="path5" d="M652.332 107.959C651.158 107.959 650.427 107.006 650.427 105.925C650.427 104.845 651.126 103.987 652.332 103.987C653.221 103.987 653.888 104.59 653.888 104.59L654.396 103.828C654.396 103.828 653.698 103.065 652.301 103.065C650.65 103.065 649.38 104.336 649.38 105.957C649.38 107.578 650.586 108.913 652.301 108.913C653.729 108.913 654.523 107.991 654.523 107.991L653.983 107.26C653.983 107.26 653.317 107.991 652.332 107.991V107.959ZM647.379 106.751C647.379 107.514 646.871 107.959 646.109 107.959C645.347 107.959 644.871 107.514 644.871 106.783V103.16H643.855V106.783C643.855 108.054 644.776 108.913 646.141 108.913C647.506 108.913 648.427 108.054 648.427 106.783V103.16H647.411V106.783L647.379 106.751ZM654.777 104.018H656.619V108.785H657.635V104.018H659.476V103.128H654.745V104.018H654.777ZM639.95 103.128H638.013V108.785H639.95C641.696 108.785 642.839 107.737 642.839 105.957C642.839 104.177 641.696 103.128 639.95 103.128ZM639.918 107.896H639.061V104.018H639.918C641.061 104.018 641.791 104.686 641.791 105.957C641.791 107.228 641.061 107.896 639.918 107.896ZM629.25 106.402C629.854 106.148 630.203 105.512 630.203 104.845C630.203 104.082 629.854 103.542 629.282 103.287C629.028 103.16 628.742 103.128 628.139 103.128H626.329V108.785H627.345V106.656H628.33L629.441 108.785H630.584L629.409 106.656C629.282 106.465 629.219 106.37 629.219 106.37L629.25 106.402ZM628.266 105.798H627.345V104.018H628.139C628.933 104.018 629.187 104.368 629.187 104.908C629.187 105.448 628.838 105.798 628.298 105.798H628.266ZM623.631 103.128H621.44V108.785H622.456V106.847H623.599C624.647 106.847 625.409 106.084 625.409 104.972C625.409 103.859 624.678 103.128 623.599 103.128H623.631ZM623.44 105.957H622.488V104.018H623.472C624.043 104.018 624.393 104.4 624.393 104.972C624.393 105.544 624.043 105.957 623.44 105.957ZM634.076 103.033C632.425 103.033 631.155 104.304 631.155 105.925C631.155 107.546 632.425 108.881 634.076 108.881C635.727 108.881 636.997 107.578 636.997 105.925C636.997 104.273 635.727 103.033 634.076 103.033ZM634.076 107.959C633.029 107.959 632.203 107.101 632.203 105.925C632.203 104.749 633.029 103.987 634.076 103.987C635.124 103.987 635.95 104.813 635.95 105.925C635.95 107.037 635.124 107.959 634.076 107.959ZM667.445 104.654C667.445 104.241 667.826 103.987 668.303 103.987C669.001 103.987 669.541 104.495 669.541 104.495L669.985 103.669C669.985 103.669 669.414 103.065 668.303 103.065C667.191 103.065 666.398 103.764 666.398 104.717C666.398 106.465 669.065 106.275 669.065 107.292C669.065 107.768 668.684 107.991 668.239 107.991C667.445 107.991 666.842 107.387 666.842 107.387L666.271 108.15C666.271 108.15 666.969 108.913 668.207 108.913C669.382 108.913 670.081 108.15 670.081 107.26C670.081 105.448 667.414 105.703 667.414 104.686L667.445 104.654ZM698.211 103.128H697.195V108.785H700.656V107.896H698.211V103.128ZM662.746 103.033C661.095 103.033 659.825 104.304 659.825 105.925C659.825 107.546 661.095 108.881 662.746 108.881C664.397 108.881 665.667 107.578 665.667 105.925C665.667 104.273 664.397 103.033 662.746 103.033ZM662.746 107.959C661.699 107.959 660.873 107.101 660.873 105.925C660.873 104.749 661.699 103.987 662.746 103.987C663.794 103.987 664.62 104.813 664.62 105.925C664.62 107.037 663.794 107.959 662.746 107.959ZM701.481 108.785H702.497V103.128H701.481V108.785ZM716.816 103.128H714.88V108.785H716.816C718.563 108.785 719.706 107.737 719.706 105.957C719.706 104.177 718.563 103.128 716.816 103.128ZM716.753 107.896H715.896V104.018H716.753C717.896 104.018 718.626 104.686 718.626 105.957C718.626 107.228 717.896 107.896 716.753 107.896ZM711.101 103.128L709.101 108.785H710.149L710.625 107.323H712.594L713.07 108.785H714.118L712.117 103.128H711.038H711.101ZM710.879 106.497L711.387 104.972C711.514 104.654 711.641 104.082 711.641 104.082C711.641 104.082 711.768 104.654 711.863 104.972L712.371 106.497H710.879ZM705.863 103.128H703.926V108.785H705.863C707.609 108.785 708.752 107.737 708.752 105.957C708.752 104.177 707.609 103.128 705.863 103.128ZM705.831 107.896H704.974V104.018H705.831C706.974 104.018 707.704 104.686 707.704 105.957C707.704 107.228 706.974 107.896 705.831 107.896ZM675.478 103.128H673.541V108.785H675.478C677.224 108.785 678.367 107.737 678.367 105.957C678.367 104.177 677.224 103.128 675.478 103.128ZM675.415 107.896H674.557V104.018H675.415C676.558 104.018 677.288 104.686 677.288 105.957C677.288 107.228 676.558 107.896 675.415 107.896ZM693.417 103.128L691.417 108.785H692.464L692.94 107.323H694.909L695.385 108.785H696.433L694.433 103.128H693.353H693.417ZM693.194 106.497L693.703 104.972C693.83 104.654 693.957 104.082 693.957 104.082C693.957 104.082 694.083 104.654 694.179 104.972L694.687 106.497H693.194ZM680.463 106.37H682.368V105.48H680.463V103.987H682.812V103.097H679.415V108.754H682.939V107.864H680.463V106.338V106.37ZM689.003 107.959C687.829 107.959 687.099 107.006 687.099 105.925C687.099 104.845 687.797 103.987 689.003 103.987C689.892 103.987 690.559 104.59 690.559 104.59L691.067 103.828C691.067 103.828 690.369 103.065 688.972 103.065C687.321 103.065 686.051 104.336 686.051 105.957C686.051 107.578 687.257 108.913 688.972 108.913C690.401 108.913 691.194 107.991 691.194 107.991L690.655 107.26C690.655 107.26 689.988 107.991 689.003 107.991V107.959Z" fill="white"/>
</g>
<g id="g10">
<path id="path6" d="M747.931 61.2414L732.374 51.9297C729.897 50.4678 727.103 49.6733 724.214 49.6733H599.12C596.262 49.6733 593.436 50.4678 590.96 51.9297L575.403 61.2414C573.117 62.608 571.688 65.1187 571.688 67.7883V79.9921C571.688 82.6617 573.117 85.1723 575.403 86.5389L590.96 95.8506C593.436 97.3126 596.23 98.1071 599.12 98.1071H724.214C727.072 98.1071 729.897 97.3126 732.374 95.8506L747.931 86.5389C750.217 85.1723 751.646 82.6617 751.646 79.9921V67.7883C751.646 65.1187 750.217 62.6398 747.931 61.2414Z" fill="white"/>
<path id="path7" d="M724.214 55.4891C726.024 55.4891 727.802 55.9976 729.389 56.9193L744.947 66.231C745.486 66.5488 745.804 67.1209 745.804 67.7565V79.9603C745.804 80.5959 745.486 81.168 744.947 81.4858L729.389 90.7975C727.834 91.7192 726.056 92.2276 724.214 92.2276H599.12C597.31 92.2276 595.532 91.7192 593.944 90.7975L578.387 81.4858C577.847 81.168 577.53 80.5959 577.53 79.9603V67.7565C577.53 67.1209 577.847 66.5488 578.387 66.231L593.944 56.9193C595.5 55.9976 597.278 55.4891 599.12 55.4891H724.214ZM724.214 51.7708H599.12C596.643 51.7708 594.198 52.4382 592.039 53.7412L576.482 63.0529C574.831 64.0382 573.815 65.8497 573.815 67.7883V79.9921C573.815 81.9307 574.831 83.7422 576.482 84.7274L592.039 94.0392C594.167 95.3104 596.611 96.0096 599.12 96.0096H724.214C726.691 96.0096 729.135 95.3422 731.294 94.0392L746.852 84.7274C748.503 83.7422 749.519 81.9307 749.519 79.9921V67.7883C749.519 65.8497 748.503 64.0382 746.852 63.0529L731.294 53.7412C729.167 52.47 726.722 51.7708 724.214 51.7708Z" fill="#1353A0"/>
<g id="g9">
<path id="path8" d="M733.612 80.9773C733.612 80.6912 733.676 80.437 733.771 80.1828C733.866 79.9285 734.025 79.706 734.215 79.5154C734.406 79.3247 734.628 79.1658 734.882 79.0704C735.136 78.9751 735.39 78.9115 735.676 78.9115C735.962 78.9115 736.216 78.9751 736.47 79.0704C736.724 79.1658 736.946 79.3247 737.136 79.5154C737.327 79.706 737.486 79.9285 737.581 80.1828C737.676 80.437 737.74 80.6912 737.74 80.9773C737.74 81.2633 737.676 81.5175 737.581 81.7718C737.486 82.026 737.327 82.2485 737.136 82.4392C736.946 82.6299 736.724 82.7888 736.47 82.8841C736.216 82.9795 735.962 83.043 735.676 83.043C735.39 83.043 735.136 82.9795 734.882 82.8841C734.628 82.7888 734.406 82.6299 734.215 82.4392C734.025 82.2485 733.866 82.026 733.771 81.7718C733.676 81.5175 733.612 81.2633 733.612 80.9773ZM733.961 80.9773C733.961 81.1997 733.993 81.4222 734.088 81.6447C734.184 81.8671 734.311 82.026 734.438 82.1849C734.596 82.3438 734.755 82.471 734.977 82.5345C735.2 82.6299 735.39 82.6617 735.644 82.6617C735.898 82.6617 736.089 82.6299 736.311 82.5345C736.533 82.4392 736.692 82.3121 736.851 82.1849C737.009 82.026 737.136 81.8671 737.2 81.6447C737.295 81.4222 737.327 81.2315 737.327 80.9773C737.327 80.723 737.295 80.5323 737.2 80.3099C737.105 80.0874 736.978 79.9285 736.851 79.7696C736.692 79.6107 736.533 79.4836 736.311 79.42C736.089 79.3247 735.898 79.2929 735.644 79.2929C735.39 79.2929 735.2 79.3247 734.977 79.42C734.755 79.5154 734.596 79.6425 734.438 79.7696C734.279 79.9285 734.152 80.0874 734.088 80.3099C733.993 80.5323 733.961 80.723 733.961 80.9773ZM734.882 79.7696H735.803C736.089 79.7696 736.311 79.8332 736.438 79.9603C736.565 80.0874 736.628 80.2463 736.628 80.5006C736.628 80.723 736.565 80.8502 736.47 80.9773C736.374 81.0726 736.216 81.1362 736.057 81.168L736.66 82.1532H736.216L735.644 81.1997H735.327V82.1532H734.882V79.8014V79.7696ZM735.295 80.7866H735.612C735.612 80.7866 735.739 80.7866 735.803 80.7866C735.866 80.7866 735.93 80.7866 735.993 80.7548C736.057 80.7548 736.089 80.6912 736.12 80.6595C736.152 80.6277 736.184 80.5641 736.184 80.4688C736.184 80.3734 736.184 80.3417 736.12 80.2781C736.089 80.2463 736.057 80.2145 735.993 80.1828C735.93 80.1828 735.866 80.151 735.803 80.151C735.739 80.151 735.676 80.151 735.612 80.151H735.295V80.8184V80.7866Z" fill="#DD0A2D"/>
<path id="path9" d="M627.409 68.1061C626.806 67.2798 625.917 66.8031 624.901 66.8031H615.153L611.153 78.9433C610.804 80.0238 611.026 81.168 611.82 82.026C612.423 82.6934 613.28 83.043 614.201 83.043H623.027L624.424 78.9115H615.725L616.392 76.9411H622.773C624.678 76.9411 626.361 75.5745 626.964 73.763L627.885 70.9346C628.203 69.9811 628.044 68.9642 627.472 68.1379L627.409 68.1061ZM622.519 73.2228H617.566L618.328 70.9346H623.281L622.519 73.2228ZM611.28 71.0935L612.931 66.1039C613.248 65.1505 613.09 64.1335 612.518 63.3072C611.915 62.4809 611.026 62.0042 610.01 62.0042H596.326C593.976 62.0042 591.881 63.4979 591.119 65.7543L590.992 66.1357H594.802L590.579 78.9115C590.23 79.9921 590.484 81.1362 591.246 81.9942C591.849 82.6616 592.611 83.0112 593.627 83.0112H604.104C606.041 83.0112 607.819 81.74 608.454 79.8332L610.232 74.4622L608.295 72.5236L611.343 71.0935H611.28ZM604.2 78.8797H595.087L596.643 74.208H605.755L604.2 78.8797ZM607.025 70.2672H597.913L599.278 66.1357H608.391L607.025 70.2672ZM638.87 73.2228H633.727L634.489 70.9346H644.014L644.077 70.7121C644.331 69.7905 644.141 68.837 643.569 68.0425C642.966 67.2162 641.982 66.7713 640.966 66.7713H631.346L629.441 72.5236C628.742 74.6847 630.33 76.8776 632.584 76.8776H637.537L636.87 78.848H627.314V78.9433C627.187 79.2929 627.155 79.6425 627.155 80.0238C627.25 81.9307 628.774 83.0112 630.361 83.0112H640.013L641.887 77.3225C642.236 76.2419 642.014 75.0978 641.252 74.2398C640.648 73.5724 639.759 73.2228 638.87 73.2228ZM719.388 67.7565C718.785 67.0891 717.928 66.7395 717.007 66.7395H716.848L712.816 78.9115H707.228L709.927 70.8392C710.276 69.7587 710.054 68.6146 709.292 67.7565C708.688 67.0891 707.831 66.7395 706.91 66.7395H706.752L702.688 78.9433C702.338 80.0238 702.561 81.168 703.323 82.026C703.926 82.6934 704.783 83.043 705.704 83.043H715.991L720.055 70.8392C720.404 69.7587 720.182 68.6146 719.42 67.7565H719.388ZM653.126 66.8031H652.015L653.348 62.7351H648.808L643.442 78.9115C643.093 79.9921 643.315 81.1362 644.077 81.9942C644.681 82.6616 645.538 83.0112 646.459 83.0112H653.888L655.253 78.8797H647.983L650.618 70.9346H656.873V70.585C656.873 68.4874 655.158 66.7713 653.063 66.7713L653.126 66.8031ZM703.735 62.7034H699.195L693.798 78.9115C693.448 79.9921 693.671 81.1362 694.433 81.9942C695.036 82.6616 695.893 83.0112 696.814 83.0112H699.862L701.513 78.8797H698.338L703.704 62.7034H703.735ZM735.771 68.0425C735.168 67.2162 734.279 66.7395 733.263 66.7395H723.516L719.515 78.8797C719.166 79.9603 719.388 81.1044 720.182 81.9625C720.785 82.6299 721.642 82.9795 722.563 82.9795H731.39L732.755 78.848H724.055L724.722 76.8776H731.104C732.945 76.8776 734.66 75.511 735.263 73.6995L736.184 70.871C736.501 69.9176 736.343 68.9006 735.771 68.0743V68.0425ZM730.882 73.191H725.929L726.691 70.9028H731.644L730.882 73.191ZM693.702 67.8201C693.099 67.1527 692.242 66.8031 691.321 66.8031H682.781L681.13 70.9346H689.829L689.162 72.905H682.781C680.876 73.0003 679.225 74.2715 678.621 76.083L677.701 78.9115C677.383 79.8649 677.542 80.8819 678.113 81.7082C678.717 82.5345 679.606 83.0112 680.622 83.0112H690.369L694.369 70.871C694.718 69.7905 694.496 68.6463 693.702 67.7883V67.8201ZM687.162 78.8797H682.209L682.971 76.5915H687.924L687.162 78.8797ZM678.621 62.0042L669.446 78.9433H669.16L666.556 62.0042H664.397C662.048 62.0042 659.984 63.4979 659.254 65.7225L659.095 66.1675H662.746L665.382 83.0112H668.144C670.208 83.0112 672.049 82.1532 673.287 80.2145L683.638 62.0042H678.621Z" fill="#DD0A2D"/>
</g>
</g>
</g>
</g>
<g id="g41">
<path id="path15" d="M190.912 438.796H196.659C200.913 438.796 203.453 441.021 203.453 444.549C203.453 449.411 199.961 452.589 194.881 452.589H188.15L190.912 438.796ZM194.976 449.951C198.278 449.951 200.215 447.695 200.215 444.708C200.215 442.674 198.913 441.402 196.309 441.402H193.579L191.864 449.951H194.976Z" fill="white"/>
<path id="path16" d="M209.803 441.371L209.2 444.358H215.581L215.105 446.837H208.692L208.057 450.015H215.581L215.042 452.557H204.374L207.136 438.765H217.55L217.01 441.307H209.771L209.803 441.371Z" fill="white"/>
<path id="path17" d="M220.312 437.97H223.392L220.471 452.589H217.391L220.312 437.97Z" fill="white"/>
<path id="path18" d="M236.282 438.796L233.52 452.589H230.345L232.599 441.371H229.837L230.345 438.828H236.282V438.796Z" fill="white"/>
<path id="path19" d="M237.108 447.6C237.108 442.61 240.029 438.574 244.283 438.574C247.331 438.574 249.268 440.513 249.268 443.786C249.268 448.776 246.347 452.812 242.093 452.812C239.045 452.812 237.108 450.873 237.108 447.6ZM246.061 443.85C246.061 442.07 245.268 441.244 243.998 441.244C241.585 441.244 240.315 444.93 240.315 447.504C240.315 449.284 241.108 450.11 242.378 450.11C244.791 450.11 246.061 446.424 246.061 443.85Z" fill="white"/>
<path id="path20" d="M251.014 443.119C251.014 440.64 252.475 438.638 254.951 438.638C256.729 438.638 257.936 439.782 257.936 441.752C257.936 444.231 256.475 446.233 253.999 446.233C252.221 446.233 251.014 445.089 251.014 443.119ZM263.27 438.796H265.746L253.745 452.589H251.237L263.27 438.796ZM255.936 441.879C255.936 440.767 255.428 440.258 254.761 440.258C253.491 440.258 252.983 441.784 252.983 443.023C252.983 444.136 253.459 444.644 254.158 444.644C255.428 444.644 255.936 443.119 255.936 441.879ZM259.079 449.634C259.079 447.155 260.539 445.153 262.984 445.153C264.794 445.153 266 446.297 266 448.267C266 450.746 264.54 452.748 262.063 452.748C260.254 452.748 259.079 451.604 259.079 449.634ZM264 448.362C264 447.25 263.524 446.742 262.825 446.742C261.555 446.742 261.047 448.299 261.047 449.507C261.047 450.619 261.524 451.127 262.254 451.127C263.492 451.127 264.032 449.57 264.032 448.362H264Z" fill="white"/>
<path id="path21" d="M278.351 441.371L277.748 444.358H284.129L283.653 446.837H277.24L276.605 450.015H284.129L283.59 452.557H272.922L275.684 438.765H286.098L285.558 441.307H278.319L278.351 441.371Z" fill="white"/>
<path id="path22" d="M301.528 438.796L298.766 452.589H296.163L291.019 443.977L289.305 452.589H286.161L288.924 438.796H291.559L296.702 447.441L298.417 438.796H301.56H301.528Z" fill="white"/>
<path id="path23" d="M321.308 443.087C321.308 446.583 318.737 448.776 314.609 448.776H311.53L310.799 452.589H307.593L310.355 438.796H315.911C319.372 438.796 321.308 440.385 321.308 443.087ZM318.07 443.373C318.07 442.038 317.117 441.402 315.53 441.402H313.022L312.069 446.201H314.768C316.863 446.201 318.102 445.216 318.102 443.373H318.07Z" fill="white"/>
<path id="path24" d="M331.595 448.331L334.008 452.589H330.643L328.484 448.744H325.753L324.991 452.589H321.785L324.547 438.796H330.167C333.596 438.796 335.564 440.385 335.564 443.055C335.564 445.725 334.104 447.536 331.627 448.299L331.595 448.331ZM332.326 443.373C332.326 442.038 331.373 441.402 329.754 441.402H327.246L326.293 446.201H329.024C331.119 446.201 332.357 445.216 332.357 443.373H332.326Z" fill="white"/>
<path id="path25" d="M336.675 446.837C336.675 442.133 340.104 438.574 345.184 438.574C349.375 438.574 351.884 441.021 351.884 444.549C351.884 449.252 348.423 452.812 343.375 452.812C339.184 452.812 336.675 450.365 336.675 446.837ZM348.677 444.708C348.677 442.674 347.343 441.275 344.93 441.275C341.819 441.275 339.914 443.722 339.914 446.646C339.914 448.68 341.247 450.079 343.66 450.079C346.772 450.079 348.677 447.631 348.677 444.708Z" fill="white"/>
<path id="path26" d="M355.598 438.796H361.377C365.631 438.796 368.171 441.021 368.171 444.549C368.171 449.411 364.679 452.589 359.599 452.589H352.868L355.63 438.796H355.598ZM359.662 449.951C362.964 449.951 364.901 447.695 364.901 444.708C364.901 442.674 363.568 441.402 360.996 441.402H358.265L356.551 449.951H359.662Z" fill="white"/>
<path id="path27" d="M370.045 447.981C370.045 447.504 370.108 447.028 370.203 446.519L371.727 438.796H374.934L373.41 446.456C373.346 446.9 373.283 447.25 373.283 447.631C373.283 449.316 374.235 450.11 375.95 450.11C377.887 450.11 378.998 449.062 379.538 446.456L381.062 438.796H384.205L382.649 446.646C381.824 450.714 379.474 452.812 375.601 452.812C372.14 452.812 370.045 450.968 370.045 447.981Z" fill="white"/>
<path id="path28" d="M384.999 446.837C384.999 442.133 388.428 438.574 393.571 438.574C396.016 438.574 397.984 439.432 398.969 441.021L396.683 442.896C395.984 441.847 394.873 441.275 393.349 441.275C390.237 441.275 388.237 443.659 388.237 446.614C388.237 448.712 389.602 450.079 392.079 450.079C393.476 450.079 394.714 449.57 395.73 448.49L397.603 450.428C396.143 452.113 394.143 452.812 391.793 452.812C387.602 452.812 384.999 450.365 384.999 446.837Z" fill="white"/>
<path id="path29" d="M403.922 441.402H399.508L400.048 438.796H412.05L411.51 441.402H407.128L404.874 452.589H401.699L403.922 441.402Z" fill="white"/>
<path id="path30" d="M411.256 446.837C411.256 442.133 414.685 438.574 419.765 438.574C423.956 438.574 426.464 441.021 426.464 444.549C426.464 449.252 423.003 452.812 417.955 452.812C413.764 452.812 411.256 450.365 411.256 446.837ZM423.257 444.708C423.257 442.674 421.924 441.275 419.511 441.275C416.399 441.275 414.494 443.722 414.494 446.646C414.494 448.68 415.828 450.079 418.241 450.079C421.352 450.079 423.257 447.631 423.257 444.708Z" fill="white"/>
<path id="path31" d="M435.735 438.796H441.513C445.768 438.796 448.308 441.021 448.308 444.549C448.308 449.411 444.815 452.589 439.735 452.589H433.004L435.767 438.796H435.735ZM439.799 449.951C443.101 449.951 445.038 447.695 445.038 444.708C445.038 442.674 443.704 441.402 441.132 441.402H438.402L436.687 449.951H439.799Z" fill="white"/>
<path id="path32" d="M454.626 441.371L454.023 444.358H460.405L459.897 446.837H453.483L452.848 450.015H460.373L459.833 452.557H449.165L451.927 438.765H462.341L461.802 441.307H454.594L454.626 441.371Z" fill="white"/>
<path id="path33" d="M481.391 448.235C481.391 451.191 478.788 452.589 475.2 452.589H467.993L470.755 438.796H477.391C480.375 438.796 482.026 439.909 482.026 441.943C482.026 443.659 481.042 444.867 479.582 445.47C480.756 445.947 481.423 446.869 481.423 448.235H481.391ZM478.216 448.204C478.216 447.187 477.423 446.773 476.153 446.773H472.311L471.644 450.174H475.391C477.137 450.174 478.216 449.507 478.216 448.204ZM473.39 441.212L472.724 444.453H475.962C477.613 444.453 478.629 443.786 478.629 442.515C478.629 441.593 477.899 441.212 476.597 441.212H473.359H473.39Z" fill="white"/>
<path id="path34" d="M488.44 441.371L487.836 444.358H494.218L493.71 446.837H487.297L486.662 450.015H494.186L493.647 452.557H482.979L485.741 438.765H496.155L495.615 441.307H488.408L488.44 441.371Z" fill="white"/>
<path id="path35" d="M495.488 451.286L496.79 448.839C498.06 449.761 499.711 450.269 501.33 450.269C503.076 450.269 504.188 449.665 504.188 448.648C504.188 446.456 497.361 447.631 497.361 443.246C497.361 440.417 499.838 438.574 503.648 438.574C505.489 438.574 507.204 438.987 508.41 439.75L507.204 442.197C506.156 441.498 504.823 441.148 503.457 441.148C501.616 441.148 500.536 441.847 500.536 442.833C500.536 445.089 507.363 443.913 507.363 448.14C507.363 451 504.854 452.812 501.013 452.812C498.758 452.812 496.631 452.144 495.488 451.286Z" fill="white"/>
<path id="path36" d="M513.649 441.402H509.236L509.776 438.796H521.777L521.237 441.402H516.856L514.602 452.589H511.427L513.649 441.402Z" fill="white"/>
<path id="path37" d="M536.446 438.796L527.746 452.589H524.603L521.396 438.796H524.698L526.921 448.617L533.143 438.796H536.446Z" fill="white"/>
<path id="path38" d="M544.161 449.634H537.747L535.969 452.589H532.572L541.494 438.796H544.637L548.002 452.589H544.827L544.192 449.634H544.161ZM543.653 447.187L542.478 441.879L539.239 447.187H543.653Z" fill="white"/>
<path id="path39" d="M552.193 438.796H555.4L553.146 449.983H560.036L559.496 452.589H549.399L552.162 438.796H552.193Z" fill="white"/>
<path id="path40" d="M562.099 447.981C562.099 447.504 562.163 447.028 562.258 446.519L563.782 438.796H566.989L565.465 446.456C565.37 446.9 565.338 447.25 565.338 447.631C565.338 449.316 566.29 450.11 568.005 450.11C569.942 450.11 571.053 449.062 571.593 446.456L573.117 438.796H576.228L574.672 446.646C573.847 450.714 571.497 452.812 567.624 452.812C564.163 452.812 562.068 450.968 562.068 447.981H562.099Z" fill="white"/>
<path id="path41" d="M582.038 441.371L581.435 444.358H587.817L587.309 446.837H580.895L580.26 450.015H587.785L587.245 452.557H576.577L579.34 438.765H589.753L589.214 441.307H582.007L582.038 441.371Z" fill="white"/>
</g>
<g id="g59">
<g id="g43">
<path id="path42" d="M46.1325 46.813H210.819C213.073 46.813 214.883 48.6245 214.883 50.8809V110.247C214.883 112.504 213.073 114.315 210.819 114.315H46.1325C43.8783 114.315 42.0686 112.504 42.0686 110.247V50.8809C42.0686 48.6245 43.8783 46.813 46.1325 46.813Z" fill="#000300"/>
<g id="Clip path group">
<mask id="mask0_1_3" style="mask-type:luminance" maskUnits="userSpaceOnUse" x="42" y="46" width="173" height="69">
<g id="clippath">
<path id="path3" d="M46.1325 46.813H210.819C213.073 46.813 214.883 48.6245 214.883 50.8809V110.247C214.883 112.504 213.073 114.315 210.819 114.315H46.1325C43.8783 114.315 42.0686 112.504 42.0686 110.247V50.8809C42.0686 48.6245 43.8783 46.813 46.1325 46.813Z" fill="white"/>
</g>
</mask>
<g mask="url(#mask0_1_3)">
<g id="g42">
<path id="rect42" d="M215.835 46.0185H126.364V118.669H215.835V46.0185Z" fill="#FA5900"/>
</g>
</g>
</g>
<path id="path43" d="M46.1325 46.813H210.819C213.073 46.813 214.883 48.6245 214.883 50.8809V110.247C214.883 112.504 213.073 114.315 210.819 114.315H46.1325C43.8783 114.315 42.0686 112.504 42.0686 110.247V50.8809C42.0686 48.6245 43.8783 46.813 46.1325 46.813Z" stroke="white" stroke-width="0.5"/>
</g>
<path id="path44" d="M67.4684 99.9821L65.9762 106.148L107.283 106.243L119.824 57.968H105.695L95.5036 99.9821H67.4684ZM68.3574 80.5006H91.6618L93.2493 74.3351H69.9449L73.5644 59.7477H99.2183L100.806 53.5823H61.0232L48.99 101.762H63.1187L68.3892 80.5323L68.3574 80.5006Z" fill="#FEFEFE"/>
<g id="g50">
<path id="path45" d="M146.24 95.9778C146.24 98.8698 145.478 101.603 141.255 101.603C138.779 101.603 136.969 100.459 136.461 97.9482L139.604 97.1854C139.699 97.9482 140.398 98.552 141.16 98.552C142.779 98.552 142.779 96.7723 142.779 95.5964V85.5537H146.24V95.9778Z" fill="#FEFEFE"/>
<path id="path46" d="M158.146 101.222H154.971V99.7597H154.939C154.495 100.586 153.415 101.476 151.796 101.476C148.431 101.476 147.827 99.283 147.827 96.3909V90.4797H151.129V95.7553C151.129 96.9948 151.129 98.5838 152.844 98.5838C154.558 98.5838 154.844 97.249 154.844 95.8506V90.5115H158.146V101.253V101.222Z" fill="#FEFEFE"/>
<path id="path47" d="M160.559 90.4797H163.861V92.1959H163.893C164.591 90.8929 165.512 90.1937 166.972 90.1937C167.353 90.1937 167.766 90.1937 168.084 90.289V93.3082C167.607 93.1811 167.163 93.0857 166.687 93.0857C164.178 93.0857 163.861 94.5476 163.861 96.6769V101.158H160.559V90.4161V90.4797Z" fill="#FEFEFE"/>
<path id="path48" d="M176.021 99.8868H175.989C175.259 101.031 173.926 101.508 172.592 101.508C170.592 101.508 168.782 100.363 168.782 98.2024C168.782 94.4841 173.291 94.4205 176.053 94.4205C176.053 93.2446 175.069 92.4819 173.926 92.4819C172.846 92.4819 171.925 92.9586 171.227 93.7531L169.449 91.9416C170.655 90.7975 172.433 90.2254 174.18 90.2254C178.053 90.2254 179.069 92.1959 179.069 95.7871V101.253H176.021V99.8868ZM175.196 96.518C174.18 96.518 171.925 96.6134 171.925 98.0753C171.925 98.8698 172.751 99.2512 173.481 99.2512C174.783 99.2512 175.989 98.552 175.989 97.249V96.5498H175.164L175.196 96.518Z" fill="#FEFEFE"/>
<path id="path49" d="M191.452 101.222H188.404V99.7915H188.372C187.864 100.554 186.594 101.476 185.07 101.476C181.895 101.476 179.799 99.1876 179.799 95.9142C179.799 92.9268 181.641 90.1937 184.721 90.1937C186.086 90.1937 187.356 90.575 188.118 91.6238H188.15V84.5049H191.452V101.222ZM185.768 93.1175C184.117 93.1175 183.133 94.2298 183.133 95.8506C183.133 97.4715 184.117 98.5838 185.768 98.5838C187.419 98.5838 188.404 97.4715 188.404 95.8506C188.404 94.2298 187.419 93.1175 185.768 93.1175Z" fill="#FEFEFE"/>
<path id="path50" d="M199.04 90.2254C202.342 90.2254 205.009 92.4501 205.009 95.8506C205.009 99.2512 202.374 101.476 199.04 101.476C195.706 101.476 193.071 99.283 193.071 95.8506C193.071 92.4183 195.706 90.2254 199.04 90.2254ZM199.04 98.5838C200.691 98.5838 201.675 97.4715 201.675 95.8506C201.675 94.2298 200.691 93.1175 199.04 93.1175C197.389 93.1175 196.405 94.2298 196.405 95.8506C196.405 97.4715 197.389 98.5838 199.04 98.5838Z" fill="#FEFEFE"/>
</g>
<g id="g58">
<path id="path51" d="M129.857 65.5318H140.334V68.7099H133.286V71.888H139.795V75.066H133.286V81.1679H129.825V65.5318H129.857Z" fill="#FEFEFE"/>
<path id="path52" d="M141.89 70.4261H145.192V72.1422H145.224C145.922 70.8392 146.843 70.14 148.304 70.14C148.685 70.14 149.097 70.14 149.415 70.2354V73.2545C148.939 73.1274 148.494 73.0321 148.018 73.0321C145.51 73.0321 145.192 74.494 145.192 76.6233V81.1044H141.89V70.3625V70.4261Z" fill="#FEFEFE"/>
<path id="path53" d="M157.575 79.8332H157.543C156.813 80.9773 155.479 81.454 154.146 81.454C152.145 81.454 150.336 80.3099 150.336 78.1488C150.336 74.4304 154.844 74.3669 157.606 74.3669C157.606 73.191 156.622 72.4282 155.479 72.4282C154.4 72.4282 153.479 72.905 152.78 73.6995L151.002 71.888C152.209 70.7439 153.987 70.1718 155.733 70.1718C159.606 70.1718 160.622 72.1422 160.622 75.7334V81.1997H157.575V79.8649V79.8332ZM156.749 76.4644C155.733 76.4644 153.479 76.5597 153.479 78.0216C153.479 78.8162 154.304 79.1975 155.035 79.1975C156.336 79.1975 157.543 78.4984 157.543 77.1954V76.4962H156.717L156.749 76.4644Z" fill="#FEFEFE"/>
<path id="path54" d="M162.972 70.4261H166.147V71.888H166.179C166.623 71.0617 167.703 70.1718 169.322 70.1718C172.687 70.1718 173.291 72.3965 173.291 75.2567V81.1679H169.989V75.8923C169.989 74.6529 169.989 73.0639 168.274 73.0639C166.56 73.0639 166.274 74.3987 166.274 75.797V81.1362H162.972V70.3943V70.4261Z" fill="#FEFEFE"/>
<path id="path55" d="M175.831 64.4513H179.133V74.6529L182.784 70.3943H186.848L182.593 75.225L186.975 81.1362H182.784L179.164 75.7017H179.101V81.1362H175.799V64.4195L175.831 64.4513Z" fill="#FEFEFE"/>
<path id="path56" d="M188.308 64.4513H191.61V81.168H188.308V64.4513Z" fill="#FEFEFE"/>
<path id="path57" d="M195.865 65.1187C196.913 65.1187 197.802 65.9768 197.802 67.0573C197.802 68.1379 196.944 68.9959 195.865 68.9959C194.785 68.9959 193.96 68.1379 193.96 67.0573C193.96 65.9768 194.817 65.1187 195.865 65.1187ZM194.214 70.4261H197.516V81.1679H194.214V70.4261Z" fill="#FEFEFE"/>
<path id="path58" d="M200.088 70.4261H203.263V71.888H203.294C203.739 71.0617 204.818 70.1718 206.438 70.1718C209.803 70.1718 210.406 72.3965 210.406 75.2567V81.1679H207.104V75.8923C207.104 74.6529 207.104 73.0639 205.39 73.0639C203.675 73.0639 203.39 74.3987 203.39 75.797V81.1362H200.088V70.3943V70.4261Z" fill="#FEFEFE"/>
</g>
</g>
<g id="g74">
<path id="path59" d="M190.88 407.842C190.88 400.914 196.182 396.051 203.453 396.051C207.866 396.051 211.359 397.672 213.581 400.564L208.787 404.855C207.454 403.17 205.898 402.217 203.866 402.217C200.723 402.217 198.595 404.41 198.595 407.874C198.595 411.338 200.723 413.531 203.866 413.531C205.898 413.531 207.485 412.577 208.787 410.893L213.581 415.183C211.359 418.075 207.898 419.696 203.453 419.696C196.214 419.696 190.88 414.834 190.88 407.906V407.842Z" fill="white"/>
<path id="path60" d="M215.264 408.986V396.56H222.852V408.764C222.852 412.228 224.186 413.499 226.313 413.499C228.44 413.499 229.774 412.196 229.774 408.764V396.56H237.235V408.986C237.235 415.755 233.171 419.664 226.249 419.664C219.328 419.664 215.264 415.755 215.264 408.986Z" fill="white"/>
<path id="path61" d="M261.841 405.077C261.841 410.289 257.841 413.594 251.554 413.594H248.284V419.156H240.696V396.592H251.554C257.841 396.592 261.841 399.897 261.841 405.109V405.077ZM254.189 405.077C254.189 403.424 253.173 402.439 251.11 402.439H248.347V407.715H251.11C253.205 407.715 254.189 406.73 254.189 405.077Z" fill="white"/>
<path id="path62" d="M263.746 407.842C263.746 401.009 269.143 396.051 276.478 396.051C283.812 396.051 289.209 401.009 289.209 407.842C289.209 414.675 283.844 419.633 276.478 419.633C269.112 419.633 263.746 414.675 263.746 407.842ZM281.526 407.842C281.526 404.314 279.272 402.185 276.478 402.185C273.684 402.185 271.429 404.314 271.429 407.842C271.429 411.37 273.684 413.499 276.478 413.499C279.272 413.499 281.526 411.37 281.526 407.842ZM277.335 389.568H284.256L277.906 394.717H273.08L277.335 389.568Z" fill="white"/>
<path id="path63" d="M314.197 396.56V419.124H307.942L299.369 408.859V419.124H291.972V396.56H298.226L306.799 406.825V396.56H314.197Z" fill="white"/>
<path id="path64" d="M327.563 396.56H338.676C346.232 396.56 351.407 400.85 351.407 407.842C351.407 414.834 346.232 419.124 338.676 419.124H327.563V396.56ZM338.326 413.213C341.533 413.213 343.724 411.306 343.724 407.874C343.724 404.441 341.533 402.535 338.326 402.535H335.151V413.245H338.326V413.213Z" fill="white"/>
<path id="path65" d="M372.934 413.404V419.156H354.17V396.592H372.521V402.344H361.663V404.982H371.188V410.448H361.663V413.404H372.934Z" fill="white"/>
<path id="path66" d="M385.538 396.56H396.651C404.207 396.56 409.383 400.85 409.383 407.842C409.383 414.834 404.207 419.124 396.651 419.124H385.538V396.56ZM396.302 413.213C399.508 413.213 401.699 411.306 401.699 407.874C401.699 404.441 399.508 402.535 396.302 402.535H393.127V413.245H396.302V413.213Z" fill="white"/>
<path id="path67" d="M430.909 413.404V419.156H412.145V396.592H430.496V402.344H419.638V404.982H429.163V410.448H419.638V413.404H430.909Z" fill="white"/>
<path id="path68" d="M432.401 417.344L434.846 411.783C436.973 413.054 439.799 413.849 442.275 413.849C444.434 413.849 445.196 413.404 445.196 412.609C445.196 409.781 432.719 412.069 432.719 403.647C432.719 399.452 436.243 396.051 443.228 396.051C446.244 396.051 449.387 396.687 451.737 398.022L449.451 403.552C447.228 402.407 445.133 401.867 443.164 401.867C440.942 401.867 440.243 402.503 440.243 403.297C440.243 405.999 452.721 403.742 452.721 412.069C452.721 416.2 449.197 419.664 442.212 419.664C438.434 419.664 434.655 418.743 432.369 417.344H432.401Z" fill="white"/>
<path id="path69" d="M454.086 407.842C454.086 400.914 459.42 396.051 466.659 396.051C471.073 396.051 474.533 397.672 476.788 400.564L471.993 404.855C470.66 403.17 469.104 402.217 467.072 402.217C463.929 402.217 461.802 404.41 461.802 407.874C461.802 411.338 463.929 413.531 467.072 413.531C469.104 413.531 470.692 412.577 471.993 410.893L476.788 415.183C474.565 418.075 471.073 419.696 466.659 419.696C459.42 419.696 454.086 414.834 454.086 407.906V407.842Z" fill="white"/>
<path id="path70" d="M478.47 408.986V396.56H486.058V408.764C486.058 412.228 487.392 413.499 489.519 413.499C491.646 413.499 492.98 412.196 492.98 408.764V396.56H500.441V408.986C500.441 415.755 496.377 419.664 489.456 419.664C482.534 419.664 478.47 415.755 478.47 408.986Z" fill="white"/>
<path id="path71" d="M522.666 413.404V419.156H503.902V396.592H522.253V402.344H511.395V404.982H520.92V410.448H511.395V413.404H522.666Z" fill="white"/>
<path id="path72" d="M547.844 396.56V419.124H541.589L533.016 408.859V419.124H525.619V396.56H531.873L540.446 406.825V396.56H547.844Z" fill="white"/>
<path id="path73" d="M556.416 402.471H549.812V396.56H570.608V402.471H564.004V419.156H556.416V402.471Z" fill="white"/>
<path id="path74" d="M571.37 407.842C571.37 401.009 576.768 396.051 584.102 396.051C591.436 396.051 596.834 401.009 596.834 407.842C596.834 414.675 591.436 419.633 584.102 419.633C576.768 419.633 571.37 414.675 571.37 407.842ZM589.15 407.842C589.15 404.314 586.896 402.185 584.102 402.185C581.308 402.185 579.054 404.314 579.054 407.842C579.054 411.37 581.308 413.499 584.102 413.499C586.896 413.499 589.15 411.37 589.15 407.842Z" fill="white"/>
</g>
<g id="contenedorBarra">
<path id="fondoBarra" d="M729.789 164.19H62.35C58.843 164.19 56 167.035 56 170.546V338.454C56 341.965 58.843 344.81 62.35 344.81H729.789C733.296 344.81 736.139 341.965 736.139 338.454V170.546C736.139 167.035 733.296 164.19 729.789 164.19Z" fill="white" stroke="#CCCCCC" stroke-linejoin="bevel"/>
<text id="barcode" fill="black" style="white-space: pre" xml:space="preserve" font-family="Inter" font-size="40" letter-spacing="0em"><tspan x="270" y="270.545">{{BARCODE}}</tspan></text>
</g>
<text id="couponId" fill="white" style="white-space: pre" xml:space="preserve" font-family="Inter, Arial, Helvetica, sans-serif" font-size="14" font-weight="bold" letter-spacing="0em"><tspan x="42" y="486.591">{{COUPON_ID}}</tspan></text>
<text id="expirationDate" fill="white" style="white-space: pre" xml:space="preserve" font-family="Inter, Arial, Helvetica, sans-serif" font-size="14" font-weight="bold" letter-spacing="0em"><tspan x="584" y="486.591">{{EXPIRATION_DATE}}</tspan></text>
</g>
<defs>
<linearGradient id="paint0_linear_1_3" x1="0" y1="254.468" x2="792" y2="254.468" gradientUnits="userSpaceOnUse">
<stop stop-color="#FF7000"/>
<stop offset="0.46" stop-color="#FE6200"/>
<stop offset="1" stop-color="#FE5801"/>
</linearGradient>
<clipPath id="clip0_1_3">
<rect width="792" height="509" fill="white"/>
</clipPath>
</defs>
</svg>
